<svg xmlns="http://www.w3.org/2000/svg" width="1600" height="900" viewBox="0 0 1600 900" preserveAspectRatio="xMidYMid slice">
  <rect width="100%" height="100%" fill="#0B0B0B" />
  <g fill="#D4AF37" transform="translate(0,420)">
    <!-- Simple stylised skyline -->
    <rect x="40" y="120" width="60" height="180"/>
    <rect x="120" y="60" width="80" height="240"/>
    <rect x="220" y="0" width="140" height="300"/>
    <rect x="380" y="80" width="60" height="220"/>
    <rect x="460" y="30" width="100" height="270"/>
    <rect x="580" y="150" width="40" height="150"/>
    <rect x="640" y="100" width="70" height="200"/>
    <rect x="740" y="40" width="120" height="260"/>
    <rect x="900" y="90" width="90" height="210"/>
    <rect x="1010" y="50" width="60" height="250"/>
    <rect x="1100" y="120" width="50" height="180"/>
    <rect x="1200" y="80" width="100" height="220"/>
    <rect x="1340" y="30" width="140" height="270"/>
  </g>
  <text x="50%" y="70%" text-anchor="middle" fill="#A9A9A9" font-family="Inter, Arial, sans-serif" font-size="28">Brum Speaks — Birmingham</text>
</svg>
